<svg xmlns="http://www.w3.org/2000/svg" width="232" height="60.527" viewBox="0 0 232 60.527"><g transform="translate(0 0)"><path d="M36.506,59.338H27.967V23.927H13.039V59.338H4.476V23.927H0V17.862H4.476v-.938c0-1.5,0-3.466.159-4.88C5.42,4.334,10.531,0,22.547,0a28.162,28.162,0,0,1,5.42.469V6.925c-10.523-.795-14.063.946-14.69,5.564a32.815,32.815,0,0,0-.238,3.974v1.415H36.506Z" fill="#00dce8"/><path d="M72.864,31.665v23.54H64.216V32.642c0-1.961,0-3.771-.159-5.891-.389-4.716-2.906-8.019-8.8-8.019S44.4,23.448,44.4,36.493V55.206h-8.64V13.469H44.4v6.915l2.835-4.764c3.3-2.517,6.353-3.223,10.53-3.223,8.966,0,14.072,4.637,14.858,11.949C72.785,26.433,72.864,28.323,72.864,31.665Z" transform="translate(11.921 4.132)" fill="#00dce8"/><path d="M73.347,42.043V58.951H71.616V1.159h1.731V40l24.37-22.412h2.6L78.3,37.644l22.091,21.308H97.8L76.888,38.819Z" transform="translate(23.872 0.386)" fill="#444"/><path d="M113.146,12.748v1.588c-7.527-.635-12.788,4.478-12.788,18.151V55.116H98.639V13.764h1.719v8.885l1.648-4.716a11.087,11.087,0,0,1,9.334-5.264,13.109,13.109,0,0,1,1.806.079Z" transform="translate(32.88 4.221)" fill="#444"/><path d="M140.3,44.969l-1.814,4.168c-2.911,4.668-7.8,7.05-13.388,7.05-7.875,0-12.727-3.692-12.727-11.115,0-9.662,12.29-13.83,25.2-13.83h2.681V29.194c0-1.969,0-3.541-.159-5.351-.549-6.208-4.645-9.527-11.423-9.527-5.823,0-12.043,3.065-12.99,10.765h-1.734c.477-6.915,6.539-12.417,14.724-12.417s12.6,3.97,13.157,10.924c.159,2.12.159,3.223.159,5.422v12.7c0,4.716.231,7.939.708,13.362h-1.814Zm-.08-6.288V33.028c-12.131-.786-25.964,2.588-25.964,12.044,0,5.74,3.54,9.527,11.136,9.527,8.838,0,14.827-7.741,14.827-15.878Z" transform="translate(37.458 4.221)" fill="#444"/><path d="M146.37,11.734v6.634h8.4V20.02h-8.4V59.427h-1.7V20H140.2V18.368h4.473V11.734a40.86,40.86,0,0,1,.159-4.163c.468-5.2,3.966-7.476,7.138-7.476a13.826,13.826,0,0,1,3.688.4V2.136c-6.123-1.494-8.725,1.5-9.105,5.665a37.532,37.532,0,0,0-.182,3.933Z" transform="translate(46.733 0.03)" fill="#444"/><path d="M168.946,55.843v1.382a29.133,29.133,0,0,1-3.985.238c-3.706,0-5.674-1.732-5.993-5.346-.159-1.891-.159-3.225-.159-5.561V17.308h-4.965v-1.39h4.965V7.4h1.737v8.516h8.169v1.414h-8.129V46.9c0,2.208,0,3.384.08,4.488C160.977,55.446,162.794,56.709,168.946,55.843Z" transform="translate(51.281 2.467)" fill="#444"/><path d="M175.872,43.483a3.745,3.745,0,1,1-3.706-3.706,3.626,3.626,0,0,1,3.706,3.706Z" transform="translate(56.127 13.259)" fill="#00dce8"/></g></svg>